<svg width="90" height="35" viewBox="0 0 90 35" fill="none" xmlns="http://www.w3.org/2000/svg">
<g clip-path="url(#clip0)">
<path d="M12.9 26.9C11.5 26.9 10.3 28.1 10.3 29.5C10.3 29.9 10.4 30.2 10.6 30.6C11.1 31.4 11.9 32.1 12.9 32.1C13.9 32.1 14.8 31.5 15.2 30.6C15.4 30.2 15.5 29.9 15.5 29.5C15.5 28 14.4 26.9 12.9 26.9ZM65.7 23.9C62.7 23.9 60.2 26.4 60.2 29.4C60.2 32.4 62.7 34.9 65.7 34.9C68.7 34.9 71.2 32.4 71.2 29.4C71.2 26.4 68.8 23.9 65.7 23.9ZM65.7 32.9C63.8 32.9 62.2 31.3 62.2 29.4C62.2 27.5 63.8 25.9 65.7 25.9C67.6 25.9 69.2 27.5 69.2 29.4C69.2 31.3 67.7 32.9 65.7 32.9ZM12.9 23.9C9.9 23.9 7.4 26.4 7.4 29.4C7.4 32.4 9.9 34.9 12.9 34.9C15.9 34.9 18.4 32.4 18.4 29.4C18.4 26.4 15.9 23.9 12.9 23.9ZM12.9 32.9C11 32.9 9.4 31.3 9.4 29.4C9.4 27.5 11 25.9 12.9 25.9C14.8 25.9 16.4 27.5 16.4 29.4C16.4 31.3 14.8 32.9 12.9 32.9ZM79.7 22.3L78.8 18.2L79.3 16.6L72 15.4C59.7 9.40001 47.6 7.90001 37 10.2C37 10.2 34 10.8 25.5 16.6C25.5 16.6 9.8 17.5 4.7 19.4L2.6 20.2L0.5 23.3L0.7 25.5L0 26.5C0 26.5 0.5 30.5 0.4 30.5L6.3 31.6H6.5C6.3 31 6.1 30.2 6.1 29.5C6.1 25.7 9.1 22.7 12.9 22.7C16.7 22.7 19.7 25.7 19.7 29.5C19.7 30.2 19.6 31 19.3 31.6H19.8L58.9 31.5L59.1 31.4C58.9 30.8 58.8 30 58.8 29.4C58.8 25.6 61.8 22.6 65.6 22.6C69.4 22.6 72.4 25.6 72.4 29.4C72.4 29.9 72.4 30.2 72.3 30.6H72.6C73.9 30.3 80.3 29.3 80.3 29.3L80.9 23.4C81 23.4 80.4 23 79.7 22.3ZM5.1 23.5L2 24.7C2 24.7 2.6 22.5 4.1 21.7C4.9 21.2 7.7 20.6 7.7 20.6L5.1 23.5ZM67.3 17.8C65.6 18 63.3 18.2 60.4 18.3C44.5 18.8 24.6 19.9 24.4 19.9C20.4 20.1 14.7 20.5 14.7 20.5C14.7 20.5 17.4 19.4 26.4 18.9C30.9 15.1 36.6 12.4 36.6 12.4C39.5 11.6 43.6 11.2 43.8 11.2C45.8 11 47.9 11.1 50.2 11.3L49.6 17.9C50.9 17.8 52.1 17.8 53.2 17.8L53.8 11.7C58.5 12.4 63 13.9 66 15.7C66.3 15.9 62.7 17.1 61.2 17.5C66.3 17.2 69.9 17.6 69.9 17.6C69.9 17.6 68.9 17.6 67.3 17.8ZM65.7 26.8C67.1 26.8 68.3 28 68.3 29.4C68.3 30.8 67.1 32 65.7 32C64.3 32 63.1 30.8 63.1 29.4C63.1 28 64.3 26.8 65.7 26.8Z" fill="#333333"/>
</g>
<defs>
<clipPath id="clip0">
<rect width="90" height="35" fill="white"/>
</clipPath>
</defs>
</svg>
