<svg width="90" height="35" viewBox="0 0 90 35" fill="none" xmlns="http://www.w3.org/2000/svg">
<path d="M14.5 21.7C10.9 21.7 8 24.6 8 28.2C8 31.8 10.9 34.7 14.5 34.7C18.1 34.7 21 31.8 21 28.2C21 24.6 18.1 21.7 14.5 21.7ZM14.5 32.4C12.1 32.4 10.2 30.5 10.2 28.1C10.2 25.7 12.1 23.8 14.5 23.8C16.9 23.8 18.8 25.7 18.8 28.1C18.7 30.6 16.8 32.4 14.5 32.4ZM14.5 24.9C12.7 24.9 11.2 26.4 11.2 28.2C11.2 30 12.7 31.5 14.5 31.5C16.3 31.5 17.8 30 17.8 28.2C17.8 26.4 16.3 24.9 14.5 24.9ZM78.8 19.6L78.7 15.9L74.9 7.3L75.6 6.5L75.4 5.4C68.5 4.5 35.6 3.6 33.4 5.3C29 8.8 24.9 12.8 24.9 12.8L4.2 15.5L1.5 17.7L0 20.8L0.8 22.3L0.1 22.8L1.1 27.9L6.8 28.7C6.7 28.2 6.6 27.5 6.6 27C6.6 22.7 10.1 19.2 14.4 19.2C18.7 19.2 22.2 22.7 22.2 27C22.2 27.8 22 28.7 21.8 29.5C29 29.5 56.2 29.5 57.8 29.5C57.8 29.4 57.8 29.2 57.7 29.1C57.5 28.5 57.4 27.8 57.4 27.1C57.4 22.7 60.9 19.2 65.3 19.2C69.7 19.2 73.2 22.7 73.2 27.1C73.2 27.3 73.2 27.4 73.2 27.6C73.2 27.8 73.2 28.1 73.2 28.1L79.4 26.3L79.9 21.5L78.8 19.6ZM4.5 20.8L2 21.5L3.5 18.4L6.1 17.4L8 18.6L4.5 20.8ZM11.3 17.3C11.3 17.3 14.2 16.4 25.3 15.8C30.1 11.3 33.3 8.2 34.8 7.1C37.7 6.2 46.5 6.6 46.5 6.6L45.9 15C47.1 14.9 48.4 14.9 49.5 14.8L50 6.5C51.8 6.5 56.2 6.5 56.2 6.5C58.3 6.5 62.4 6.5 62.4 6.5L64.4 14.3C65 14.3 65.6 14.3 66.1 14.3L64.1 6.6L70.7 7L73.6 12.5L73.1 14.6C73.1 14.6 71.8 14.8 70 15C68.1 15.2 65.5 15.4 62.3 15.5C62.3 15.5 33.8 16.4 26.6 17C18.6 17.3 11.3 17.3 11.3 17.3ZM65.5 21.7C61.9 21.7 59 24.6 59 28.2C59 31.8 61.9 34.7 65.5 34.7C69.1 34.7 72 31.8 72 28.2C72 24.6 69.1 21.7 65.5 21.7ZM65.5 32.4C63.1 32.4 61.2 30.5 61.2 28.1C61.2 25.7 63.1 23.8 65.5 23.8C67.9 23.8 69.8 25.7 69.8 28.1C69.7 30.6 67.8 32.4 65.5 32.4ZM65.5 24.9C63.7 24.9 62.2 26.4 62.2 28.2C62.2 30 63.7 31.5 65.5 31.5C67.3 31.5 68.8 30 68.8 28.2C68.8 26.4 67.3 24.9 65.5 24.9Z" fill="#333333"/>
</svg>
