<svg id="Layer_1" data-name="Layer 1" xmlns="http://www.w3.org/2000/svg" viewBox="0 0 397.129 140.014"><defs><style>.cls-1{fill:#231f20;}</style></defs><title>Hatchback_whitebackground_black</title><path class="cls-1" d="M81.241,115.913a13.892,13.892,0,1,0,13.892,13.893A13.909,13.909,0,0,0,81.241,115.913Z" transform="translate(-18.251 -18.02)"/><path class="cls-1" d="M81.241,101.578a28.228,28.228,0,1,0,28.228,28.228A28.228,28.228,0,0,0,81.241,101.578Zm0,47.119a18.892,18.892,0,1,1,18.892-18.891A18.913,18.913,0,0,1,81.241,148.7Z" transform="translate(-18.251 -18.02)"/><path class="cls-1" d="M353.9,115.913A13.892,13.892,0,1,0,367.8,129.806,13.909,13.909,0,0,0,353.9,115.913Z" transform="translate(-18.251 -18.02)"/><path class="cls-1" d="M353.9,101.578a28.228,28.228,0,1,0,28.228,28.228A28.228,28.228,0,0,0,353.9,101.578Zm0,47.119A18.892,18.892,0,1,1,372.8,129.806,18.913,18.913,0,0,1,353.9,148.7Z" transform="translate(-18.251 -18.02)"/><path class="cls-1" d="M318.632,32.556" transform="translate(-18.251 -18.02)"/><path class="cls-1" d="M327.138,64.221" transform="translate(-18.251 -18.02)"/><path class="cls-1" d="M315.135,32.141" transform="translate(-18.251 -18.02)"/><path class="cls-1" d="M413.545,100.51a48.034,48.034,0,0,1-9.018-31.188S393.818,39.45,373.151,32.686l5.626-2.129a.4.4,0,0,0-.067-.767c-9.889-1.861-70.745-12.8-127.587-11.683a9.332,9.332,0,0,0-1.3-.084c-16.132-.115-43.978,3.013-56.713,4.56a5.085,5.085,0,0,1-1.981.4c-3.132,1.13-6.546,1.453-9.36,3.262a5.3,5.3,0,0,1-1.29.607l-52.239,30.3v-.086l-5.739.843c-13.645.5-38.05,4.151-58.271,7.524l-8.336,1.614-.274.073-.828.287L31.117,75.586,20.944,93.436l.815,13.63-3.375,5.4,3.457-4.03-3.457,4.03h0l-.133.156.056,1.213h0l1.082,23.333,17.293,3.38,14.173,2.88c-8.634-17.775,3.936-34,3.936-34a33.485,33.485,0,0,1,56.188,36.041l9.916.194,193.137-1.754V143.9l.335-.006,0,.013.591-.024h0l8.188-.334A33.5,33.5,0,1,1,385.2,141.02l6.273-.256c4.313.124,16.525-.869,21.131-15.454C418.242,107.461,413.545,100.51,413.545,100.51ZM44.733,96.1l-14.344,6.519S29.266,87.651,55.013,81.436ZM81.241,77.778s27.193-9.79,55.387-9.23l37.7-28.532s11.761-10.909,33.032-10.909h32.281l17.941.824L255.115,62.22h16.143V30.559l23.187,1.065,14.265,1.435h0c12.131,1.125,43.424,6.234,61.307,29.335Z" transform="translate(-18.251 -18.02)"/><path class="cls-1" d="M248.188,26.652" transform="translate(-18.251 -18.02)"/><path class="cls-1" d="M248.188,69.726" transform="translate(-18.251 -18.02)"/><path class="cls-1" d="M31.117,75.586" transform="translate(-18.251 -18.02)"/><path class="cls-1" d="M135.167,67.823" transform="translate(-18.251 -18.02)"/></svg>