<?xml version="1.0" encoding="utf-8"?>
<!-- Generator: Adobe Illustrator 19.2.0, SVG Export Plug-In . SVG Version: 6.00 Build 0)  -->
<svg version="1.1" id="Ebene_3" xmlns="http://www.w3.org/2000/svg" xmlns:xlink="http://www.w3.org/1999/xlink" x="0px" y="0px"
	 viewBox="0 0 90 35" style="enable-background:new 0 0 90 35;" xml:space="preserve">
<style type="text/css">
	.st0{fill:#333333;}
</style>
<path id="Van" class="st0" d="M72.9,25.8c1.7,0,3,1.3,3,3s-1.3,3-3,3s-3-1.3-3-3C69.9,27.2,71.2,25.8,72.9,25.8z M79.1,28.8
	c0,3.4-2.7,6.2-6.2,6.2c-3.4,0-6.2-2.7-6.2-6.2c0-3.4,2.7-6.2,6.2-6.2C76.3,22.7,79.1,25.4,79.1,28.8z M77,28.8
	c0-2.3-1.8-4.1-4.1-4.1c-2.3,0-4.1,1.8-4.1,4.1s1.8,4.1,4.1,4.1C75.2,32.9,77,31.1,77,28.8z M10.7,28.8c0,1.7,1.3,3,3,3s3-1.3,3-3
	s-1.3-3-3-3S10.7,27.2,10.7,28.8z M19.9,28.8c0,3.4-2.7,6.2-6.2,6.2c-3.4,0-6.2-2.7-6.2-6.2c0-3.4,2.7-6.2,6.2-6.2
	C17,22.7,19.9,25.4,19.9,28.8z M17.8,28.8c0-2.3-1.8-4.1-4.1-4.1s-4.1,1.8-4.1,4.1s1.8,4.1,4.1,4.1C16,32.9,17.8,31.1,17.8,28.8z
	 M86.4,27L86,29.2l-5.5,1.1c0.1-0.5,0.1-1,0.1-1.4c0-1.9-0.7-3.6-1.8-5c-0.1-0.1-0.1-0.1-0.2-0.2l0,0c-1.4-1.6-3.4-2.6-5.7-2.6
	c-2.2,0-4.3,1-5.6,2.5c-1.3,1.4-2,3.2-2,5.2c0,0.7,0.1,1.4,0.3,2.1c-2.7,0-37.7,0.7-44.7,0.7c0.3-0.9,0.5-1.8,0.5-2.7
	c0-4.2-3.4-7.7-7.7-7.7c-4.2,0-7.7,3.4-7.7,7.7c0,1,0.2,1.9,0.5,2.8l-6.1-1.3L0,25l1.1-1.3l-0.3-2.1c0,0,1.1-3.5,1.4-3.9
	c2.6-1.6,14.4-4.8,14.4-4.8C26,6,26,6.3,31.6,3.7C36.5,1.8,80.7,1.8,82,3.4c3.7,5.2,3.5,21.4,3.5,21.4L86.4,27z M8.3,17.3l-4.9,2
	l-1.1,3.4l5.5-3.4L8.3,17.3z M81,12.8c0,0-0.5-4.3-4-7.2c-1.2-0.7-7.2-1.2-13.1-1.3l0.9,7.9l-1.8,0l-0.9-7.8
	c-8.4-0.1-17.9,0.2-18.9,0.2l0.2,8.5c-1.2,0.1-2.8,0.1-4,0.2l0.2-8.7c0,0-4.6,0.1-7.5,1.1C29.2,7,23,10.2,18,14.6
	c-7.5,1.9-8.2,2.1-8.2,2.1C24.3,14.8,68.2,12.7,81,12.8z"/>
</svg>
