<svg width="90" height="35" viewBox="0 0 90 35" fill="none" xmlns="http://www.w3.org/2000/svg">
<g clip-path="url(#clip0)">
<path d="M80.9 22.5L80.2 16.9C80.2 16.9 77.1 13.6 74.1 11.4L74.8 11.1L74.6 10.6C55.8 9.10001 40.6 8.50001 34.8 9.90001C33.9 10.2 31.3 11.6 23.4 16.8C23.4 16.8 9.7 17.6 4.7 19.6L2.6 20.4L0.5 23.5L0.7 25.6L0 26.5C0 26.5 0.4 30.5 0.4 30.4L6.2 31.4H6.4C6.2 30.8 6 30.1 6 29.4C6 25.7 9 22.7 12.7 22.7C16.4 22.7 19.4 25.7 19.4 29.4C19.4 30.1 19.3 30.9 19 31.5H19.6H57.5H57.8C57.6 30.8 57.4 30.1 57.4 29.4C57.4 25.7 60.4 22.7 64.1 22.7C67.8 22.7 70.8 25.7 70.8 29.4C70.8 29.9 70.8 30.2 70.7 30.7H71L80.1 29.6L81.6 27.1L82 23.6C82.1 23.5 81.6 23.1 80.9 22.5ZM5 23.8L2 25C2 25 2.7 22.9 4.1 22C4.9 21.5 7.6 20.9 7.6 20.9L5 23.8ZM65.6 18C48.4 18.4 36.7 18.7 24.9 19.7C21.2 20 12.8 20.4 11.5 20.7C12.3 20.4 16.7 19.2 24.5 18.7C29.5 14.9 34.2 12 35.6 11.6C37 11.2 40.6 10.9 44.9 10.9L44.2 17.6C45.1 17.6 46 17.5 46.9 17.5L47.6 11C50.6 10.8 60 11.4 60 11.4L62.2 17.2C62.7 17.2 63.9 17.2 64.1 17.2L61.9 11.6C64.3 11.8 67.7 12.2 70.4 13.1C74.3 14.5 77 17.5 77 17.5C77 17.5 73.3 17.8 65.6 18ZM64.2 24C61.2 24 58.7 26.4 58.7 29.5C58.7 32.5 61.1 35 64.2 35C67.2 35 69.7 32.6 69.7 29.5C69.6 26.4 67.2 24 64.2 24ZM64.2 32.9C62.2 32.9 60.7 31.3 60.7 29.4C60.7 27.4 62.3 25.9 64.2 25.9C66.2 25.9 67.7 27.5 67.7 29.4C67.7 31.3 66 32.9 64.2 32.9ZM64.2 27C65.6 27 66.7 28.1 66.7 29.5C66.7 30.9 65.6 32 64.2 32C62.8 32 61.7 30.9 61.7 29.5C61.7 28.1 62.8 27 64.2 27ZM12.8 24C9.8 24 7.3 26.4 7.3 29.5C7.3 32.5 9.7 35 12.8 35C15.8 35 18.3 32.6 18.3 29.5C18.2 26.4 15.8 24 12.8 24ZM12.8 32.9C10.8 32.9 9.3 31.3 9.3 29.4C9.3 27.4 10.9 25.9 12.8 25.9C14.8 25.9 16.3 27.5 16.3 29.4C16.3 31.3 14.6 32.9 12.8 32.9ZM12.8 27C14.2 27 15.3 28.1 15.3 29.5C15.3 30.9 14.2 32 12.8 32C11.4 32 10.3 30.9 10.3 29.5C10.3 28.1 11.4 27 12.8 27Z" fill="#333333"/>
</g>
<defs>
<clipPath id="clip0">
<rect width="90" height="35" fill="white"/>
</clipPath>
</defs>
</svg>
